<?xml version="1.0" standalone="no"?>
<!DOCTYPE svg PUBLIC "-//W3C//DTD SVG 20010904//EN"
 "http://www.w3.org/TR/2001/REC-SVG-20010904/DTD/svg10.dtd">
<svg version="1.0" xmlns="http://www.w3.org/2000/svg"
 width="1024.000000pt" height="1024.000000pt" viewBox="0 0 1024.000000 1024.000000"
 preserveAspectRatio="xMidYMid meet">
<metadata>
Created by potrace 1.11, written by Peter Selinger 2001-2013
</metadata>
<g transform="translate(0.000000,1024.000000) scale(0.100000,-0.100000)"
fill="#000000" stroke="none">
<path d="M2665 8912 c2 -11 6 -57 9 -104 4 -47 8 -94 10 -104 2 -10 7 -59 11
-109 3 -49 8 -103 10 -120 2 -16 7 -61 10 -100 3 -38 8 -81 10 -95 2 -14 6
-65 10 -114 4 -50 8 -98 10 -108 2 -10 6 -54 10 -98 3 -44 7 -97 9 -117 3 -21
8 -72 11 -113 4 -41 8 -88 10 -105 2 -16 7 -64 11 -105 3 -41 7 -88 9 -105 2
-16 6 -68 10 -114 4 -46 8 -92 10 -101 2 -10 6 -59 10 -110 3 -50 8 -99 10
-108 2 -15 8 -79 21 -222 2 -25 6 -70 9 -100 8 -73 12 -119 20 -215 3 -44 8
-87 10 -95 2 -8 7 -55 10 -105 3 -49 7 -101 10 -115 2 -14 7 -61 10 -105 4
-44 8 -93 10 -110 3 -16 7 -64 10 -105 3 -41 7 -85 9 -98 3 -12 7 -61 11 -110
3 -48 7 -100 9 -117 2 -16 7 -64 10 -106 4 -42 8 -85 10 -95 2 -11 7 -60 10
-110 4 -50 9 -102 11 -115 2 -13 6 -63 10 -111 3 -47 7 -94 9 -105 2 -10 7
-54 10 -98 7 -78 12 -139 21 -220 2 -22 7 -71 10 -110 3 -38 8 -88 10 -110 2
-22 7 -71 10 -110 3 -38 8 -88 10 -110 2 -22 7 -71 10 -110 4 -38 8 -81 10
-94 3 -14 7 -63 10 -110 4 -47 8 -97 10 -111 2 -14 7 -61 10 -105 3 -44 8 -93
10 -110 2 -16 7 -64 10 -105 4 -41 8 -90 10 -109 3 -19 7 -69 10 -110 3 -42 8
-87 10 -101 2 -14 7 -63 10 -110 3 -47 8 -96 10 -110 2 -14 6 -59 10 -100 4
-41 8 -88 10 -105 2 -16 6 -67 10 -111 4 -45 8 -94 10 -110 2 -16 7 -67 10
-113 4 -46 8 -91 10 -101 2 -9 6 -56 10 -106 4 -49 8 -100 10 -114 2 -14 7
-61 11 -105 3 -44 8 -82 9 -84 3 -2 845 -4 996 -1 28 0 29 1 45 105 3 22 8 43
10 46 2 3 5 19 8 35 6 36 19 117 21 124 1 3 5 25 9 50 5 25 10 54 12 65 2 11
6 31 9 45 2 14 9 50 15 80 6 30 13 68 15 84 3 15 7 35 9 45 3 9 8 36 11 61 3
24 9 60 15 80 5 19 11 51 14 70 3 19 13 71 21 115 9 44 18 92 20 107 2 15 6
35 9 45 3 10 7 34 10 53 3 19 8 46 11 60 2 14 7 36 10 50 2 14 7 39 10 55 3
17 7 41 10 55 3 14 9 50 15 80 6 30 12 66 15 80 3 14 8 41 11 60 9 49 12 64
30 160 9 47 17 92 19 100 1 8 12 65 23 125 12 61 24 126 27 145 3 19 10 53 15
75 5 22 11 56 14 75 3 19 8 46 11 60 3 14 7 37 10 53 3 15 7 39 10 55 3 15 7
38 10 52 3 14 8 41 11 60 3 19 15 80 25 135 11 55 22 112 24 127 2 15 6 35 9
45 3 10 8 36 11 58 4 22 8 49 10 60 2 11 9 45 15 75 6 30 13 64 14 75 2 11 6
34 9 50 4 17 9 44 12 60 3 17 7 41 10 55 13 67 55 289 59 315 14 89 87 459 91
463 3 3 5 -15 6 -39 0 -24 2 -51 3 -59 2 -8 7 -58 11 -110 4 -52 9 -108 10
-125 2 -16 6 -64 9 -105 4 -41 8 -91 11 -110 2 -19 7 -66 10 -105 6 -82 14
-172 20 -235 3 -25 7 -74 10 -110 3 -36 8 -89 10 -117 3 -29 7 -79 10 -110 3
-32 8 -85 11 -118 3 -33 7 -78 9 -100 2 -22 7 -71 10 -110 5 -67 12 -152 20
-225 2 -19 6 -75 10 -125 4 -49 8 -97 10 -105 2 -8 7 -60 11 -115 3 -55 8
-108 10 -118 2 -11 6 -58 9 -105 3 -48 8 -103 10 -122 2 -19 7 -64 10 -100 3
-36 7 -85 10 -110 2 -25 7 -79 10 -120 6 -76 12 -139 20 -220 2 -25 7 -79 10
-120 4 -41 8 -91 11 -110 2 -19 6 -66 9 -105 3 -38 7 -95 10 -125 3 -30 8 -82
11 -115 2 -33 7 -80 9 -105 2 -25 7 -79 10 -120 4 -41 8 -86 10 -100 2 -14 6
-65 10 -115 4 -49 8 -91 10 -93 4 -5 1015 -5 1019 -1 2 2 27 123 56 269 28
146 53 272 55 281 10 50 55 278 59 299 18 99 87 448 91 460 2 8 7 35 10 60 4
24 8 47 10 50 2 3 6 22 9 42 3 21 10 57 15 80 6 24 12 56 15 72 3 16 10 52 15
80 10 50 14 71 26 131 3 17 10 53 15 80 6 28 12 59 14 70 2 11 11 54 20 95 8
41 17 89 20 105 13 67 18 93 33 165 8 41 17 84 19 95 42 220 73 376 104 535
22 107 42 210 45 228 3 18 12 65 21 105 8 39 17 88 20 107 3 19 9 51 14 70 5
19 12 51 15 70 3 19 8 42 10 50 2 8 6 33 10 55 3 22 7 47 10 55 2 8 6 26 9 40
2 14 14 72 25 130 11 58 22 116 25 130 2 14 7 36 10 50 3 14 8 36 10 50 2 14
7 36 10 50 3 14 8 36 10 50 2 14 29 153 60 310 31 157 59 299 62 315 3 17 16
84 29 150 14 66 26 131 29 145 2 14 7 36 10 50 3 14 8 36 10 50 2 14 7 36 10
50 6 25 14 65 20 105 4 24 5 28 51 258 19 98 37 193 40 210 3 18 10 48 15 67
5 19 12 53 15 75 3 22 15 83 25 135 11 52 22 106 24 120 7 38 75 382 81 410 3
14 8 39 11 55 2 17 16 85 29 152 14 68 28 140 31 160 3 21 7 40 9 43 2 3 6 25
10 50 4 25 9 48 11 52 3 5 -206 8 -464 8 l-470 0 -7 -46 c-6 -45 -10 -66 -20
-114 -2 -14 -7 -41 -10 -60 -3 -19 -12 -71 -20 -115 -8 -44 -17 -93 -20 -110
-2 -16 -7 -40 -9 -52 -3 -11 -8 -43 -12 -70 -5 -26 -9 -50 -9 -53 -1 -3 -5
-25 -9 -50 -5 -25 -10 -54 -12 -65 -7 -39 -23 -130 -29 -165 -3 -19 -16 -96
-30 -170 -13 -74 -27 -153 -30 -175 -4 -22 -8 -47 -10 -55 -2 -8 -7 -31 -10
-50 -5 -30 -22 -129 -40 -225 -3 -16 -12 -68 -20 -115 -8 -47 -19 -110 -24
-140 -5 -30 -12 -71 -15 -90 -4 -19 -9 -46 -11 -60 -12 -58 -16 -81 -35 -190
-11 -63 -22 -126 -24 -140 -3 -14 -7 -41 -10 -60 -3 -19 -10 -60 -16 -90 -6
-30 -22 -120 -36 -200 -13 -80 -27 -156 -29 -170 -3 -14 -9 -50 -15 -80 -6
-30 -12 -66 -15 -80 -3 -14 -7 -41 -10 -60 -3 -19 -7 -46 -10 -60 -8 -41 -24
-132 -31 -175 -3 -22 -12 -71 -19 -110 -8 -38 -17 -90 -20 -115 -4 -24 -8 -47
-10 -50 -1 -3 -6 -27 -10 -55 -3 -27 -15 -92 -25 -145 -10 -52 -21 -115 -25
-140 -3 -25 -8 -52 -10 -60 -2 -8 -6 -31 -9 -50 -3 -19 -8 -46 -11 -60 -3 -14
-10 -52 -15 -85 -5 -33 -12 -71 -15 -85 -2 -13 -7 -42 -10 -65 -3 -22 -8 -47
-11 -56 -3 -10 -6 -30 -9 -45 -2 -16 -8 -51 -14 -79 -5 -27 -12 -70 -16 -95
-4 -25 -11 -67 -16 -95 -6 -27 -12 -59 -14 -70 -1 -11 -6 -36 -9 -55 -30 -167
-78 -437 -82 -472 -11 -77 -23 -88 -24 -23 -1 33 -3 71 -5 85 -1 14 -5 63 -9
110 -3 47 -8 114 -11 150 -3 36 -7 99 -10 140 -5 75 -11 150 -20 265 -2 33 -7
103 -10 155 -4 52 -8 112 -10 132 -2 21 -7 81 -10 135 -3 54 -7 116 -10 138
-2 22 -7 81 -10 130 -4 50 -8 113 -10 140 -2 28 -7 93 -10 145 -4 52 -8 111
-10 130 -2 19 -6 87 -10 150 -3 63 -8 126 -10 140 -2 14 -7 70 -10 124 -3 54
-8 122 -10 150 -2 28 -6 87 -10 131 -3 44 -8 107 -10 140 -2 33 -7 96 -10 140
-3 44 -7 107 -10 140 -3 33 -7 96 -10 140 -4 75 -7 111 -20 268 -3 34 -8 98
-10 142 -3 44 -8 107 -10 140 -3 33 -8 98 -10 145 -3 47 -7 110 -10 140 -6 70
-13 174 -20 270 -2 41 -7 102 -10 135 -10 124 -15 192 -20 270 -3 44 -7 107
-10 140 -2 33 -7 92 -9 130 -3 39 -8 108 -12 155 -12 158 -13 175 -13 213 l-1
37 -368 0 -369 0 -18 -102 c-10 -57 -19 -112 -21 -123 -2 -11 -6 -33 -9 -50
-3 -16 -16 -91 -29 -165 -14 -74 -27 -151 -30 -170 -3 -19 -15 -87 -26 -150
-29 -159 -30 -165 -45 -255 -3 -16 -12 -66 -19 -110 -8 -44 -17 -96 -21 -115
-3 -19 -15 -87 -26 -150 -11 -63 -22 -122 -24 -130 -2 -8 -7 -35 -10 -60 -3
-25 -8 -52 -11 -61 -3 -10 -6 -30 -9 -45 -2 -16 -13 -81 -24 -144 -11 -63 -23
-128 -26 -145 -2 -16 -7 -41 -10 -55 -3 -14 -18 -104 -35 -200 -16 -96 -32
-186 -35 -200 -3 -14 -10 -52 -15 -85 -5 -33 -12 -71 -15 -85 -3 -14 -9 -50
-14 -80 -8 -47 -30 -168 -46 -260 -3 -14 -19 -104 -35 -200 -17 -96 -40 -222
-50 -280 -11 -58 -22 -121 -25 -140 -3 -19 -17 -98 -31 -175 -28 -157 -30
-166 -38 -215 -3 -19 -17 -96 -30 -170 -14 -74 -28 -157 -31 -185 -4 -27 -9
-52 -10 -55 -3 -5 -27 -140 -41 -225 -2 -16 -9 -52 -14 -80 -5 -27 -12 -65
-15 -82 -12 -76 -16 -99 -20 -113 -2 -8 -6 -33 -10 -55 -3 -22 -12 -76 -20
-120 -8 -44 -16 -91 -19 -105 -15 -93 -39 -211 -41 -208 -1 2 -6 53 -10 113
-3 61 -8 132 -11 158 -2 27 -6 87 -9 135 -3 48 -7 105 -10 127 -2 22 -7 87
-10 145 -4 58 -8 121 -10 140 -2 19 -6 78 -10 130 -3 52 -8 118 -10 145 -4 52
-13 166 -20 270 -2 33 -7 94 -10 135 -3 41 -7 104 -10 140 -2 36 -7 94 -10
130 -3 36 -7 101 -10 145 -2 44 -7 107 -9 140 -9 105 -16 208 -21 290 -3 44
-7 100 -10 125 -2 25 -7 88 -10 140 -4 52 -8 111 -10 130 -2 19 -7 85 -11 145
-11 167 -11 174 -18 270 -4 50 -9 108 -11 130 -2 22 -7 90 -10 150 -4 61 -8
124 -10 140 -2 17 -6 77 -10 135 -3 58 -8 123 -10 145 -2 22 -7 87 -10 145 -4
58 -8 119 -10 137 -2 17 -7 78 -10 135 -4 57 -8 119 -10 138 -2 19 -6 82 -10
140 -4 58 -9 121 -11 140 -2 19 -6 80 -9 135 -4 55 -8 114 -10 130 -2 17 -7
82 -11 145 -4 63 -8 126 -9 140 -2 14 -3 44 -4 68 l-1 42 -469 0 c-451 0 -470
-1 -466 -18z"/>
</g>
</svg>
